<mxfile host="app.diagrams.net" modified="2021-08-12T15:54:13.382Z" agent="5.0 (Macintosh; Intel Mac OS X 10_15_2) AppleWebKit/537.36 (KHTML, like Gecko) Chrome/92.0.4515.131 Safari/537.36" etag="qxbG9q1OZSYTtmX3w0Vo" version="14.9.4" type="github">
  <diagram id="gWv8p2fRBi3BSQbaY7EZ" name="Page-1">
    <mxGraphModel dx="946" dy="527" grid="1" gridSize="10" guides="1" tooltips="1" connect="1" arrows="1" fold="1" page="1" pageScale="1" pageWidth="1654" pageHeight="2336" math="0" shadow="0">
      <root>
        <mxCell id="0" />
        <mxCell id="1" parent="0" />
        <mxCell id="49LW0W7c4GUoR5V6cft--33" value="" style="rounded=1;whiteSpace=wrap;html=1;dashed=1;fontSize=13;strokeWidth=2;fillColor=none;" vertex="1" parent="1">
          <mxGeometry x="257.5" y="1272.5" width="515" height="367.5" as="geometry" />
        </mxCell>
        <mxCell id="49LW0W7c4GUoR5V6cft--1" value="" style="rounded=1;whiteSpace=wrap;html=1;dashed=1;fontSize=13;strokeWidth=2;fillColor=none;" vertex="1" parent="1">
          <mxGeometry x="247.5" y="1670" width="515" height="910" as="geometry" />
        </mxCell>
        <mxCell id="49LW0W7c4GUoR5V6cft--41" value="" style="rounded=1;whiteSpace=wrap;html=1;fillColor=none;" vertex="1" parent="1">
          <mxGeometry x="329" y="1700" width="351" height="230" as="geometry" />
        </mxCell>
        <mxCell id="-TRdZXpyqSL2OUfW8DLA-36" value="" style="rounded=0;whiteSpace=wrap;html=1;dashed=1;fontSize=13;strokeWidth=2;fillColor=none;" parent="1" vertex="1">
          <mxGeometry x="430" y="870" width="150" height="110" as="geometry" />
        </mxCell>
        <mxCell id="49LW0W7c4GUoR5V6cft--70" style="edgeStyle=orthogonalEdgeStyle;rounded=0;orthogonalLoop=1;jettySize=auto;html=1;exitX=1;exitY=0.5;exitDx=0;exitDy=0;entryX=1.001;entryY=0.087;entryDx=0;entryDy=0;entryPerimeter=0;curved=1;" edge="1" parent="1" source="49LW0W7c4GUoR5V6cft--3" target="49LW0W7c4GUoR5V6cft--1">
          <mxGeometry relative="1" as="geometry">
            <Array as="points">
              <mxPoint x="890" y="1473" />
              <mxPoint x="890" y="1749" />
            </Array>
          </mxGeometry>
        </mxCell>
        <mxCell id="49LW0W7c4GUoR5V6cft--3" value="" style="rounded=0;whiteSpace=wrap;html=1;dashed=1;fillColor=none;strokeColor=#EA6B66;perimeterSpacing=0;strokeWidth=2;" vertex="1" parent="1">
          <mxGeometry x="282.5" y="1425" width="445" height="95" as="geometry" />
        </mxCell>
        <mxCell id="-TRdZXpyqSL2OUfW8DLA-40" value="" style="rounded=1;whiteSpace=wrap;html=1;dashed=1;fontSize=13;strokeWidth=2;fillColor=none;" parent="1" vertex="1">
          <mxGeometry x="110" y="150" width="790" height="982.5" as="geometry" />
        </mxCell>
        <mxCell id="-TRdZXpyqSL2OUfW8DLA-39" style="edgeStyle=orthogonalEdgeStyle;rounded=0;orthogonalLoop=1;jettySize=auto;html=1;exitX=0.5;exitY=1;exitDx=0;exitDy=0;entryX=0.5;entryY=0;entryDx=0;entryDy=0;fontSize=13;fontColor=#666666;" parent="1" source="-TRdZXpyqSL2OUfW8DLA-17" target="-TRdZXpyqSL2OUfW8DLA-2" edge="1">
          <mxGeometry relative="1" as="geometry" />
        </mxCell>
        <mxCell id="-TRdZXpyqSL2OUfW8DLA-17" value="" style="rounded=0;whiteSpace=wrap;html=1;dashed=1;fillColor=none;strokeColor=#EA6B66;perimeterSpacing=0;strokeWidth=2;" parent="1" vertex="1">
          <mxGeometry x="282.5" y="325" width="445" height="675" as="geometry" />
        </mxCell>
        <mxCell id="-TRdZXpyqSL2OUfW8DLA-21" value="" style="rounded=0;whiteSpace=wrap;html=1;dashed=1;fontSize=14;strokeWidth=2;fillColor=none;" parent="1" vertex="1">
          <mxGeometry x="337.5" y="370" width="335" height="300" as="geometry" />
        </mxCell>
        <mxCell id="-TRdZXpyqSL2OUfW8DLA-18" style="edgeStyle=orthogonalEdgeStyle;rounded=0;orthogonalLoop=1;jettySize=auto;html=1;exitX=0.5;exitY=1;exitDx=0;exitDy=0;entryX=0.5;entryY=0;entryDx=0;entryDy=0;" parent="1" source="-TRdZXpyqSL2OUfW8DLA-1" target="-TRdZXpyqSL2OUfW8DLA-17" edge="1">
          <mxGeometry relative="1" as="geometry" />
        </mxCell>
        <mxCell id="-TRdZXpyqSL2OUfW8DLA-1" value="&lt;font style=&quot;font-size: 16px&quot;&gt;isBatchingEventUpdates = true&lt;/font&gt;" style="rounded=1;whiteSpace=wrap;html=1;fillColor=#f8cecc;strokeColor=#b85450;" parent="1" vertex="1">
          <mxGeometry x="360" y="230" width="290" height="40" as="geometry" />
        </mxCell>
        <mxCell id="-TRdZXpyqSL2OUfW8DLA-2" value="&lt;font style=&quot;font-size: 16px&quot;&gt;isBatchingEventUpdates = false&lt;/font&gt;" style="rounded=1;whiteSpace=wrap;html=1;fillColor=#f8cecc;strokeColor=#b85450;" parent="1" vertex="1">
          <mxGeometry x="360" y="1030" width="290" height="40" as="geometry" />
        </mxCell>
        <mxCell id="-TRdZXpyqSL2OUfW8DLA-3" value="&lt;font style=&quot;font-size: 14px&quot;&gt;this.setState(state1, callback1)&lt;/font&gt;" style="rounded=1;whiteSpace=wrap;html=1;fillColor=#dae8fc;strokeColor=#6c8ebf;" parent="1" vertex="1">
          <mxGeometry x="370" y="390" width="270" height="30" as="geometry" />
        </mxCell>
        <mxCell id="-TRdZXpyqSL2OUfW8DLA-6" value="&lt;font style=&quot;font-size: 14px&quot;&gt;console&lt;/font&gt;" style="rounded=1;whiteSpace=wrap;html=1;fillColor=#d5e8d4;strokeColor=#82b366;" parent="1" vertex="1">
          <mxGeometry x="460" y="430" width="90" height="30" as="geometry" />
        </mxCell>
        <mxCell id="-TRdZXpyqSL2OUfW8DLA-7" value="&lt;font style=&quot;font-size: 14px&quot;&gt;this.setState(state2, callback2)&lt;/font&gt;" style="rounded=1;whiteSpace=wrap;html=1;fillColor=#dae8fc;strokeColor=#6c8ebf;" parent="1" vertex="1">
          <mxGeometry x="370" y="490" width="270" height="30" as="geometry" />
        </mxCell>
        <mxCell id="-TRdZXpyqSL2OUfW8DLA-8" value="&lt;font style=&quot;font-size: 14px&quot;&gt;console&lt;/font&gt;" style="rounded=1;whiteSpace=wrap;html=1;fillColor=#d5e8d4;strokeColor=#82b366;" parent="1" vertex="1">
          <mxGeometry x="460" y="530" width="90" height="30" as="geometry" />
        </mxCell>
        <mxCell id="-TRdZXpyqSL2OUfW8DLA-9" value="&lt;font style=&quot;font-size: 14px&quot;&gt;this.setState(state3, callback3)&lt;/font&gt;" style="rounded=1;whiteSpace=wrap;html=1;fillColor=#dae8fc;strokeColor=#6c8ebf;" parent="1" vertex="1">
          <mxGeometry x="370" y="590" width="270" height="30" as="geometry" />
        </mxCell>
        <mxCell id="-TRdZXpyqSL2OUfW8DLA-10" value="&lt;font style=&quot;font-size: 14px&quot;&gt;console&lt;/font&gt;" style="rounded=1;whiteSpace=wrap;html=1;fillColor=#d5e8d4;strokeColor=#82b366;" parent="1" vertex="1">
          <mxGeometry x="460" y="630" width="90" height="30" as="geometry" />
        </mxCell>
        <mxCell id="-TRdZXpyqSL2OUfW8DLA-29" style="edgeStyle=orthogonalEdgeStyle;rounded=0;orthogonalLoop=1;jettySize=auto;html=1;exitX=0.5;exitY=1;exitDx=0;exitDy=0;entryX=0.5;entryY=0;entryDx=0;entryDy=0;fontSize=14;fontColor=#1A1A1A;" parent="1" source="-TRdZXpyqSL2OUfW8DLA-11" target="-TRdZXpyqSL2OUfW8DLA-12" edge="1">
          <mxGeometry relative="1" as="geometry" />
        </mxCell>
        <mxCell id="-TRdZXpyqSL2OUfW8DLA-11" value="&lt;font style=&quot;font-size: 14px&quot;&gt;合并state&lt;br&gt;state1 -&amp;gt; state2 -&amp;gt; state3&amp;nbsp; =&amp;gt; state&amp;nbsp;&lt;/font&gt;" style="rounded=1;whiteSpace=wrap;html=1;fillColor=#b1ddf0;strokeColor=#10739e;" parent="1" vertex="1">
          <mxGeometry x="357.5" y="710" width="295" height="50" as="geometry" />
        </mxCell>
        <mxCell id="-TRdZXpyqSL2OUfW8DLA-31" style="edgeStyle=orthogonalEdgeStyle;rounded=0;orthogonalLoop=1;jettySize=auto;html=1;exitX=0.5;exitY=1;exitDx=0;exitDy=0;entryX=0.5;entryY=0;entryDx=0;entryDy=0;fontSize=14;fontColor=#1A1A1A;" parent="1" source="-TRdZXpyqSL2OUfW8DLA-12" target="-TRdZXpyqSL2OUfW8DLA-13" edge="1">
          <mxGeometry relative="1" as="geometry" />
        </mxCell>
        <mxCell id="-TRdZXpyqSL2OUfW8DLA-12" value="&lt;font style=&quot;font-size: 14px&quot;&gt;render&lt;/font&gt;" style="ellipse;whiteSpace=wrap;html=1;fillColor=#fad9d5;strokeColor=#ae4132;" parent="1" vertex="1">
          <mxGeometry x="460" y="800" width="90" height="60" as="geometry" />
        </mxCell>
        <mxCell id="-TRdZXpyqSL2OUfW8DLA-13" value="cb1" style="ellipse;whiteSpace=wrap;html=1;fillColor=#fad7ac;strokeColor=#b46504;" parent="1" vertex="1">
          <mxGeometry x="475" y="880" width="60" height="30" as="geometry" />
        </mxCell>
        <mxCell id="-TRdZXpyqSL2OUfW8DLA-14" value="cb2" style="ellipse;whiteSpace=wrap;html=1;fillColor=#fad7ac;strokeColor=#b46504;" parent="1" vertex="1">
          <mxGeometry x="475" y="910" width="60" height="30" as="geometry" />
        </mxCell>
        <mxCell id="-TRdZXpyqSL2OUfW8DLA-15" value="cb3" style="ellipse;whiteSpace=wrap;html=1;fillColor=#fad7ac;strokeColor=#b46504;" parent="1" vertex="1">
          <mxGeometry x="475" y="940" width="60" height="30" as="geometry" />
        </mxCell>
        <mxCell id="-TRdZXpyqSL2OUfW8DLA-20" value="&lt;b&gt;onClick 事件执行上下文&lt;/b&gt;" style="text;html=1;strokeColor=none;fillColor=none;align=center;verticalAlign=middle;whiteSpace=wrap;rounded=0;dashed=1;fontSize=14;fontColor=#FF6666;" parent="1" vertex="1">
          <mxGeometry x="420" y="320" width="180" height="50" as="geometry" />
        </mxCell>
        <mxCell id="-TRdZXpyqSL2OUfW8DLA-23" style="edgeStyle=orthogonalEdgeStyle;rounded=0;orthogonalLoop=1;jettySize=auto;html=1;exitX=1;exitY=0.5;exitDx=0;exitDy=0;fontSize=14;fontColor=#FF6666;" parent="1" source="-TRdZXpyqSL2OUfW8DLA-21" edge="1">
          <mxGeometry relative="1" as="geometry">
            <mxPoint x="760" y="520" as="targetPoint" />
            <Array as="points">
              <mxPoint x="760" y="520" />
            </Array>
          </mxGeometry>
        </mxCell>
        <mxCell id="-TRdZXpyqSL2OUfW8DLA-25" style="edgeStyle=orthogonalEdgeStyle;rounded=0;orthogonalLoop=1;jettySize=auto;html=1;exitX=0.5;exitY=1;exitDx=0;exitDy=0;entryX=0.5;entryY=0;entryDx=0;entryDy=0;fontSize=14;fontColor=#1A1A1A;" parent="1" source="-TRdZXpyqSL2OUfW8DLA-21" target="-TRdZXpyqSL2OUfW8DLA-11" edge="1">
          <mxGeometry relative="1" as="geometry" />
        </mxCell>
        <mxCell id="-TRdZXpyqSL2OUfW8DLA-24" value="批量更新条件下" style="text;html=1;strokeColor=none;fillColor=none;align=center;verticalAlign=middle;whiteSpace=wrap;rounded=0;dashed=1;fontSize=14;fontColor=#1A1A1A;" parent="1" vertex="1">
          <mxGeometry x="790" y="505" width="100" height="30" as="geometry" />
        </mxCell>
        <mxCell id="-TRdZXpyqSL2OUfW8DLA-32" value="num = 2" style="text;html=1;strokeColor=none;fillColor=none;align=center;verticalAlign=middle;whiteSpace=wrap;rounded=0;dashed=1;fontSize=13;fontColor=#666666;" parent="1" vertex="1">
          <mxGeometry x="660.5" y="730" width="67" height="20" as="geometry" />
        </mxCell>
        <mxCell id="-TRdZXpyqSL2OUfW8DLA-33" value="num = 1" style="text;html=1;strokeColor=none;fillColor=none;align=center;verticalAlign=middle;whiteSpace=wrap;rounded=0;dashed=1;fontSize=13;fontColor=#666666;" parent="1" vertex="1">
          <mxGeometry x="560" y="635" width="67" height="20" as="geometry" />
        </mxCell>
        <mxCell id="-TRdZXpyqSL2OUfW8DLA-34" value="num = 1" style="text;html=1;strokeColor=none;fillColor=none;align=center;verticalAlign=middle;whiteSpace=wrap;rounded=0;dashed=1;fontSize=13;fontColor=#666666;" parent="1" vertex="1">
          <mxGeometry x="560" y="535" width="67" height="20" as="geometry" />
        </mxCell>
        <mxCell id="-TRdZXpyqSL2OUfW8DLA-35" value="num = 1" style="text;html=1;strokeColor=none;fillColor=none;align=center;verticalAlign=middle;whiteSpace=wrap;rounded=0;dashed=1;fontSize=13;fontColor=#666666;" parent="1" vertex="1">
          <mxGeometry x="560" y="435" width="67" height="20" as="geometry" />
        </mxCell>
        <mxCell id="-TRdZXpyqSL2OUfW8DLA-37" value="num = 2" style="text;html=1;strokeColor=none;fillColor=none;align=center;verticalAlign=middle;whiteSpace=wrap;rounded=0;dashed=1;fontSize=13;fontColor=#666666;" parent="1" vertex="1">
          <mxGeometry x="600" y="915" width="67" height="20" as="geometry" />
        </mxCell>
        <mxCell id="-TRdZXpyqSL2OUfW8DLA-41" value="&lt;font style=&quot;font-size: 16px;&quot; color=&quot;#000000&quot;&gt;事件系统函数上下文&lt;/font&gt;" style="text;html=1;strokeColor=none;fillColor=none;align=center;verticalAlign=middle;whiteSpace=wrap;rounded=0;dashed=1;fontSize=16;fontColor=#666666;fontStyle=1" parent="1" vertex="1">
          <mxGeometry x="425" y="170" width="160" height="40" as="geometry" />
        </mxCell>
        <mxCell id="49LW0W7c4GUoR5V6cft--2" style="edgeStyle=orthogonalEdgeStyle;rounded=0;orthogonalLoop=1;jettySize=auto;html=1;exitX=0.5;exitY=1;exitDx=0;exitDy=0;entryX=0.5;entryY=0;entryDx=0;entryDy=0;fontSize=13;fontColor=#666666;" edge="1" parent="1" source="49LW0W7c4GUoR5V6cft--3" target="49LW0W7c4GUoR5V6cft--7">
          <mxGeometry relative="1" as="geometry" />
        </mxCell>
        <mxCell id="49LW0W7c4GUoR5V6cft--5" style="edgeStyle=orthogonalEdgeStyle;rounded=0;orthogonalLoop=1;jettySize=auto;html=1;exitX=0.5;exitY=1;exitDx=0;exitDy=0;entryX=0.5;entryY=0;entryDx=0;entryDy=0;" edge="1" parent="1" source="49LW0W7c4GUoR5V6cft--6" target="49LW0W7c4GUoR5V6cft--3">
          <mxGeometry relative="1" as="geometry" />
        </mxCell>
        <mxCell id="49LW0W7c4GUoR5V6cft--6" value="&lt;font style=&quot;font-size: 16px&quot;&gt;isBatchingEventUpdates = true&lt;/font&gt;" style="rounded=1;whiteSpace=wrap;html=1;fillColor=#f8cecc;strokeColor=#b85450;" vertex="1" parent="1">
          <mxGeometry x="360" y="1330" width="290" height="40" as="geometry" />
        </mxCell>
        <mxCell id="49LW0W7c4GUoR5V6cft--7" value="&lt;font style=&quot;font-size: 16px&quot;&gt;isBatchingEventUpdates = false&lt;/font&gt;" style="rounded=1;whiteSpace=wrap;html=1;fillColor=#f8cecc;strokeColor=#b85450;" vertex="1" parent="1">
          <mxGeometry x="360" y="1560" width="290" height="40" as="geometry" />
        </mxCell>
        <mxCell id="49LW0W7c4GUoR5V6cft--21" value="&lt;b&gt;onClick 事件执行上下文&lt;/b&gt;" style="text;html=1;strokeColor=none;fillColor=none;align=center;verticalAlign=middle;whiteSpace=wrap;rounded=0;dashed=1;fontSize=14;fontColor=#FF6666;" vertex="1" parent="1">
          <mxGeometry x="420" y="1420" width="180" height="50" as="geometry" />
        </mxCell>
        <mxCell id="49LW0W7c4GUoR5V6cft--31" value="&lt;font style=&quot;font-size: 16px;&quot; color=&quot;#000000&quot;&gt;事件系统函数上下文&lt;/font&gt;" style="text;html=1;strokeColor=none;fillColor=none;align=center;verticalAlign=middle;whiteSpace=wrap;rounded=0;dashed=1;fontSize=16;fontColor=#666666;fontStyle=1" vertex="1" parent="1">
          <mxGeometry x="425" y="1270" width="160" height="40" as="geometry" />
        </mxCell>
        <mxCell id="49LW0W7c4GUoR5V6cft--32" value="&lt;font style=&quot;font-size: 14px&quot;&gt;setTimeout&lt;/font&gt;" style="rounded=1;whiteSpace=wrap;html=1;fillColor=#d5e8d4;strokeColor=#82b366;" vertex="1" parent="1">
          <mxGeometry x="378.75" y="1470" width="252.5" height="30" as="geometry" />
        </mxCell>
        <mxCell id="49LW0W7c4GUoR5V6cft--38" style="edgeStyle=orthogonalEdgeStyle;rounded=0;orthogonalLoop=1;jettySize=auto;html=1;exitX=0.5;exitY=1;exitDx=0;exitDy=0;entryX=0.5;entryY=0;entryDx=0;entryDy=0;" edge="1" parent="1" source="49LW0W7c4GUoR5V6cft--34" target="49LW0W7c4GUoR5V6cft--36">
          <mxGeometry relative="1" as="geometry" />
        </mxCell>
        <mxCell id="49LW0W7c4GUoR5V6cft--34" value="&lt;font style=&quot;font-size: 14px&quot;&gt;this.setState(state1, callback1)&lt;/font&gt;" style="rounded=1;whiteSpace=wrap;html=1;fillColor=#dae8fc;strokeColor=#6c8ebf;" vertex="1" parent="1">
          <mxGeometry x="370" y="1710" width="270" height="30" as="geometry" />
        </mxCell>
        <mxCell id="49LW0W7c4GUoR5V6cft--40" style="edgeStyle=orthogonalEdgeStyle;rounded=0;orthogonalLoop=1;jettySize=auto;html=1;exitX=0.5;exitY=1;exitDx=0;exitDy=0;entryX=0.5;entryY=0;entryDx=0;entryDy=0;" edge="1" parent="1" source="49LW0W7c4GUoR5V6cft--35" target="49LW0W7c4GUoR5V6cft--37">
          <mxGeometry relative="1" as="geometry" />
        </mxCell>
        <mxCell id="49LW0W7c4GUoR5V6cft--35" value="&lt;font style=&quot;font-size: 14px&quot;&gt;render&lt;/font&gt;" style="ellipse;whiteSpace=wrap;html=1;fillColor=#fad9d5;strokeColor=#ae4132;" vertex="1" parent="1">
          <mxGeometry x="460" y="1810" width="90" height="60" as="geometry" />
        </mxCell>
        <mxCell id="49LW0W7c4GUoR5V6cft--39" style="edgeStyle=orthogonalEdgeStyle;rounded=0;orthogonalLoop=1;jettySize=auto;html=1;exitX=0.5;exitY=1;exitDx=0;exitDy=0;entryX=0.5;entryY=0;entryDx=0;entryDy=0;" edge="1" parent="1" source="49LW0W7c4GUoR5V6cft--36" target="49LW0W7c4GUoR5V6cft--35">
          <mxGeometry relative="1" as="geometry" />
        </mxCell>
        <mxCell id="49LW0W7c4GUoR5V6cft--36" value="&lt;font style=&quot;font-size: 14px&quot;&gt;&amp;nbsp;state&amp;nbsp;&lt;/font&gt;" style="rounded=1;whiteSpace=wrap;html=1;fillColor=#b1ddf0;strokeColor=#10739e;" vertex="1" parent="1">
          <mxGeometry x="411.25" y="1760" width="187.5" height="30" as="geometry" />
        </mxCell>
        <mxCell id="49LW0W7c4GUoR5V6cft--37" value="cb1" style="ellipse;whiteSpace=wrap;html=1;fillColor=#fad7ac;strokeColor=#b46504;" vertex="1" parent="1">
          <mxGeometry x="475" y="1890" width="60" height="30" as="geometry" />
        </mxCell>
        <mxCell id="49LW0W7c4GUoR5V6cft--42" value="&lt;font style=&quot;font-size: 14px&quot;&gt;console&lt;/font&gt;" style="rounded=1;whiteSpace=wrap;html=1;fillColor=#d5e8d4;strokeColor=#82b366;" vertex="1" parent="1">
          <mxGeometry x="460" y="1940" width="90" height="30" as="geometry" />
        </mxCell>
        <mxCell id="49LW0W7c4GUoR5V6cft--43" value="num = 2" style="text;html=1;strokeColor=none;fillColor=none;align=center;verticalAlign=middle;whiteSpace=wrap;rounded=0;dashed=1;fontSize=13;fontColor=#666666;" vertex="1" parent="1">
          <mxGeometry x="613" y="1765" width="67" height="20" as="geometry" />
        </mxCell>
        <mxCell id="49LW0W7c4GUoR5V6cft--44" value="num = 2" style="text;html=1;strokeColor=none;fillColor=none;align=center;verticalAlign=middle;whiteSpace=wrap;rounded=0;dashed=1;fontSize=13;fontColor=#666666;" vertex="1" parent="1">
          <mxGeometry x="613" y="1895" width="67" height="20" as="geometry" />
        </mxCell>
        <mxCell id="49LW0W7c4GUoR5V6cft--45" value="num = 2" style="text;html=1;strokeColor=none;fillColor=none;align=center;verticalAlign=middle;whiteSpace=wrap;rounded=0;dashed=1;fontSize=13;fontColor=#666666;" vertex="1" parent="1">
          <mxGeometry x="613" y="1945" width="67" height="20" as="geometry" />
        </mxCell>
        <mxCell id="49LW0W7c4GUoR5V6cft--51" value="" style="rounded=1;whiteSpace=wrap;html=1;fillColor=none;" vertex="1" parent="1">
          <mxGeometry x="329" y="2000" width="351" height="230" as="geometry" />
        </mxCell>
        <mxCell id="49LW0W7c4GUoR5V6cft--52" value="&lt;font style=&quot;font-size: 14px&quot;&gt;this.setState(state1, callback1)&lt;/font&gt;" style="rounded=1;whiteSpace=wrap;html=1;fillColor=#dae8fc;strokeColor=#6c8ebf;" vertex="1" parent="1">
          <mxGeometry x="370" y="2010" width="270" height="30" as="geometry" />
        </mxCell>
        <mxCell id="49LW0W7c4GUoR5V6cft--53" value="&lt;font style=&quot;font-size: 14px&quot;&gt;render&lt;/font&gt;" style="ellipse;whiteSpace=wrap;html=1;fillColor=#fad9d5;strokeColor=#ae4132;" vertex="1" parent="1">
          <mxGeometry x="460" y="2110" width="90" height="60" as="geometry" />
        </mxCell>
        <mxCell id="49LW0W7c4GUoR5V6cft--54" value="&lt;font style=&quot;font-size: 14px&quot;&gt;&amp;nbsp;state&amp;nbsp;&lt;/font&gt;" style="rounded=1;whiteSpace=wrap;html=1;fillColor=#b1ddf0;strokeColor=#10739e;" vertex="1" parent="1">
          <mxGeometry x="411.25" y="2060" width="187.5" height="30" as="geometry" />
        </mxCell>
        <mxCell id="49LW0W7c4GUoR5V6cft--55" value="cb1" style="ellipse;whiteSpace=wrap;html=1;fillColor=#fad7ac;strokeColor=#b46504;" vertex="1" parent="1">
          <mxGeometry x="475" y="2190" width="60" height="30" as="geometry" />
        </mxCell>
        <mxCell id="49LW0W7c4GUoR5V6cft--56" value="&lt;font style=&quot;font-size: 14px&quot;&gt;console&lt;/font&gt;" style="rounded=1;whiteSpace=wrap;html=1;fillColor=#d5e8d4;strokeColor=#82b366;" vertex="1" parent="1">
          <mxGeometry x="460" y="2240" width="90" height="30" as="geometry" />
        </mxCell>
        <mxCell id="49LW0W7c4GUoR5V6cft--57" value="num = 3" style="text;html=1;strokeColor=none;fillColor=none;align=center;verticalAlign=middle;whiteSpace=wrap;rounded=0;dashed=1;fontSize=13;fontColor=#666666;" vertex="1" parent="1">
          <mxGeometry x="613" y="2065" width="67" height="20" as="geometry" />
        </mxCell>
        <mxCell id="49LW0W7c4GUoR5V6cft--58" value="num = 3" style="text;html=1;strokeColor=none;fillColor=none;align=center;verticalAlign=middle;whiteSpace=wrap;rounded=0;dashed=1;fontSize=13;fontColor=#666666;" vertex="1" parent="1">
          <mxGeometry x="613" y="2195" width="67" height="20" as="geometry" />
        </mxCell>
        <mxCell id="49LW0W7c4GUoR5V6cft--59" value="num = 3" style="text;html=1;strokeColor=none;fillColor=none;align=center;verticalAlign=middle;whiteSpace=wrap;rounded=0;dashed=1;fontSize=13;fontColor=#666666;" vertex="1" parent="1">
          <mxGeometry x="613" y="2245" width="67" height="20" as="geometry" />
        </mxCell>
        <mxCell id="49LW0W7c4GUoR5V6cft--60" value="" style="rounded=1;whiteSpace=wrap;html=1;fillColor=none;" vertex="1" parent="1">
          <mxGeometry x="329" y="2300" width="351" height="230" as="geometry" />
        </mxCell>
        <mxCell id="49LW0W7c4GUoR5V6cft--61" value="&lt;font style=&quot;font-size: 14px&quot;&gt;this.setState(state1, callback1)&lt;/font&gt;" style="rounded=1;whiteSpace=wrap;html=1;fillColor=#dae8fc;strokeColor=#6c8ebf;" vertex="1" parent="1">
          <mxGeometry x="370" y="2310" width="270" height="30" as="geometry" />
        </mxCell>
        <mxCell id="49LW0W7c4GUoR5V6cft--62" value="&lt;font style=&quot;font-size: 14px&quot;&gt;render&lt;/font&gt;" style="ellipse;whiteSpace=wrap;html=1;fillColor=#fad9d5;strokeColor=#ae4132;" vertex="1" parent="1">
          <mxGeometry x="460" y="2410" width="90" height="60" as="geometry" />
        </mxCell>
        <mxCell id="49LW0W7c4GUoR5V6cft--63" value="&lt;font style=&quot;font-size: 14px&quot;&gt;&amp;nbsp;state&amp;nbsp;&lt;/font&gt;" style="rounded=1;whiteSpace=wrap;html=1;fillColor=#b1ddf0;strokeColor=#10739e;" vertex="1" parent="1">
          <mxGeometry x="411.25" y="2360" width="187.5" height="30" as="geometry" />
        </mxCell>
        <mxCell id="49LW0W7c4GUoR5V6cft--64" value="cb1" style="ellipse;whiteSpace=wrap;html=1;fillColor=#fad7ac;strokeColor=#b46504;" vertex="1" parent="1">
          <mxGeometry x="475" y="2490" width="60" height="30" as="geometry" />
        </mxCell>
        <mxCell id="49LW0W7c4GUoR5V6cft--65" value="&lt;font style=&quot;font-size: 14px&quot;&gt;console&lt;/font&gt;" style="rounded=1;whiteSpace=wrap;html=1;fillColor=#d5e8d4;strokeColor=#82b366;" vertex="1" parent="1">
          <mxGeometry x="460" y="2540" width="90" height="30" as="geometry" />
        </mxCell>
        <mxCell id="49LW0W7c4GUoR5V6cft--66" value="num = 4" style="text;html=1;strokeColor=none;fillColor=none;align=center;verticalAlign=middle;whiteSpace=wrap;rounded=0;dashed=1;fontSize=13;fontColor=#666666;" vertex="1" parent="1">
          <mxGeometry x="613" y="2365" width="67" height="20" as="geometry" />
        </mxCell>
        <mxCell id="49LW0W7c4GUoR5V6cft--67" value="num = 4" style="text;html=1;strokeColor=none;fillColor=none;align=center;verticalAlign=middle;whiteSpace=wrap;rounded=0;dashed=1;fontSize=13;fontColor=#666666;" vertex="1" parent="1">
          <mxGeometry x="613" y="2495" width="67" height="20" as="geometry" />
        </mxCell>
        <mxCell id="49LW0W7c4GUoR5V6cft--68" value="num = 4" style="text;html=1;strokeColor=none;fillColor=none;align=center;verticalAlign=middle;whiteSpace=wrap;rounded=0;dashed=1;fontSize=13;fontColor=#666666;" vertex="1" parent="1">
          <mxGeometry x="613" y="2545" width="67" height="20" as="geometry" />
        </mxCell>
        <mxCell id="49LW0W7c4GUoR5V6cft--71" value="setTimout任务" style="text;html=1;strokeColor=none;fillColor=none;align=center;verticalAlign=middle;whiteSpace=wrap;rounded=0;fontSize=14;" vertex="1" parent="1">
          <mxGeometry x="840" y="1610" width="100" height="20" as="geometry" />
        </mxCell>
      </root>
    </mxGraphModel>
  </diagram>
</mxfile>
